<?xml version="1.0" encoding="utf-8"?>
<svg version="1.1" id="Layer_1" xmlns="http://www.w3.org/2000/svg" xmlns:xlink="http://www.w3.org/1999/xlink" x="0px" y="0px"
	 viewBox="0 0 25 20" style="enable-background:new 0 0 25 20;" xml:space="preserve">
<style type="text/css">
	.st0{fill:#CCCCCC;}
</style>
<title>twitter1</title>
<g id="Homepage">
	<g id="Tom-Robertshaw" transform="translate(-558.000000, -1449.000000)">
		<g id="footer" transform="translate(-3.000000, 1399.347656)">
			<path id="twitter1" class="st0" d="M585.6,52.1c-0.9,0.4-1.9,0.7-2.9,0.8c1-0.6,1.8-1.6,2.2-2.8c-1,0.6-2.1,1-3.2,1.2
				c-0.9-1-2.2-1.6-3.7-1.6c-2.8,0-5,2.3-5,5c0,0.4,0,0.8,0.1,1.1c-4.2-0.2-7.9-2.2-10.4-5.3c-0.4,0.7-0.7,1.6-0.7,2.5
				c0,1.7,0.9,3.3,2.2,4.2c-0.8,0-1.6-0.3-2.3-0.6v0.1c0,2.4,1.7,4.5,4,4.9c-0.4,0.1-0.9,0.2-1.3,0.2c-0.3,0-0.6,0-1-0.1
				c0.6,2,2.5,3.5,4.7,3.5c-1.7,1.3-3.9,2.1-6.3,2.1c-0.4,0-0.8,0-1.2-0.1c2.2,1.4,4.9,2.3,7.7,2.3c9.3,0,14.4-7.7,14.4-14.3l0-0.7
				C584.1,54,584.9,53.1,585.6,52.1L585.6,52.1z"/>
		</g>
	</g>
</g>
</svg>
