<?xml version="1.0" encoding="utf-8"?>
<!-- Generator: Adobe Illustrator 19.2.1, SVG Export Plug-In . SVG Version: 6.00 Build 0)  -->
<svg version="1.1" id="Layer_1" xmlns="http://www.w3.org/2000/svg" xmlns:xlink="http://www.w3.org/1999/xlink" x="0px" y="0px"
	 viewBox="0 0 304 264" style="enable-background:new 0 0 304 264;" xml:space="preserve">
<style type="text/css">
	.st0{fill:#304A9F;}
	.st1{fill:#263D85;}
	.st2{fill:#3E67B1;}
	.st3{fill:#42A6D2;}
	.st4{fill:#0B7CB6;}
	.st5{fill:#1579B3;}
	.st6{fill:#485EA1;}
	.st7{fill:#328FCE;}
</style>
<path class="st0" d="M19.709,129.752l51.169,45.482l39.557,11.539l35.935,10.481l0.313,0.971l0.002-0.417l0.373-0.39l40.954,8.004
	l19.375-8.729l51.833,51.863l1.76-55.976l0.047-1.51l14.022-6.319l-1.616-28.958l0.226-0.141l-0.409-3.146l-0.001-0.015
	l-0.001,0.001l-5.168-39.716l-0.271-0.15l-4.889-35.94l-29.02-19.87l-29.099-19.925l-61.908-6.952l-39.167,3.16l-65.697,44.22
	L19.709,129.752"/>
<g>
	<polygon class="st0" points="70.878,175.235 101.58,159.423 110.435,186.774 	"/>
	<polygon class="st1" points="64.852,146.112 126.04,134.156 101.58,159.423 	"/>
	<polygon class="st2" points="19.709,129.752 70.878,118.914 91.562,140.892 64.852,146.112 	"/>
	<polygon class="st0" points="91.562,140.892 70.878,118.914 126.04,134.156 	"/>
	<polygon class="st3" points="70.878,118.914 38.029,77.321 126.04,134.156 	"/>
	<polygon class="st4" points="38.029,77.321 19.709,129.752 70.878,118.914 	"/>
	<polygon class="st0" points="38.029,77.321 126.04,105.739 126.04,134.156 	"/>
	<polygon class="st2" points="80.641,68.34 101.58,97.853 38.029,77.321 	"/>
	<polygon class="st5" points="103.727,33.101 101.58,97.853 80.641,68.34 	"/>
	<polygon class="st0" points="103.727,33.101 80.641,68.34 38.029,77.321 	"/>
	<polygon class="st6" points="101.58,97.853 126.04,73.893 126.04,105.739 	"/>
	<polygon class="st2" points="101.58,97.853 126.04,73.893 103.727,33.101 	"/>
	<polygon class="st3" points="126.04,73.893 142.893,29.941 142.893,29.941 103.727,33.101 	"/>
	<polygon class="st0" points="204.801,36.893 134.465,51.918 142.893,29.941 	"/>
	<polygon class="st7" points="134.465,51.918 233.899,56.818 204.801,36.893 	"/>
	<polygon class="st5" points="101.58,159.423 146.683,197.346 110.435,186.774 	"/>
	<polygon class="st3" points="126.04,134.156 146.683,197.346 101.58,159.423 	"/>
	<polygon class="st1" points="165.68,53.455 262.919,76.688 233.899,56.818 	"/>
	<polygon class="st2" points="268.079,114.625 262.919,76.688 165.68,53.455 	"/>
	<polygon class="st0" points="226.549,89.816 273.658,155.654 268.079,112.779 	"/>
	<polygon class="st2" points="245.671,173.098 226.549,89.816 273.658,155.654 	"/>
	<polygon class="st1" points="219.961,191.029 236.11,131.458 245.671,173.098 	"/>
	<polygon class="st7" points="259.22,248.557 243.097,199.149 201.768,191.072 	"/>
	<polygon class="st2" points="261.026,191.072 243.097,199.149 259.22,248.557 	"/>
	<polygon class="st1" points="146.683,197.346 219.961,191.029 188.011,205.423 	"/>
	<polyline class="st6" points="219.961,191.029 177.371,165.752 146.683,197.346 	"/>
	<polygon class="st3" points="236.11,131.458 177.371,165.752 219.961,192.006 	"/>
	<polygon class="st2" points="165.68,126.408 177.371,165.752 236.11,131.458 	"/>
	<polygon class="st0" points="126.04,134.156 177.371,165.752 165.68,126.408 	"/>
	<polyline class="st5" points="146.685,197.809 146.683,198.226 126.04,134.156 177.371,165.752 	"/>
	<polygon class="st6" points="66.715,146.789 70.878,175.235 101.58,159.423 	"/>
	<polygon class="st3" points="19.709,129.752 70.878,175.235 66.715,146.789 	"/>
	<polygon class="st6" points="200.895,100.353 165.68,126.408 236.11,131.458 	"/>
	<polygon class="st1" points="226.549,89.816 200.895,100.353 236.11,131.458 	"/>
	<polygon class="st5" points="165.68,53.455 226.549,89.816 200.895,100.353 	"/>
	<polygon class="st0" points="165.68,53.455 165.68,126.408 200.895,100.353 	"/>
	<polygon class="st3" points="126.04,134.156 142.893,89.932 165.68,126.408 	"/>
	<polygon class="st5" points="165.68,53.455 165.68,126.408 142.893,89.932 	"/>
	<polygon class="st2" points="134.465,51.918 142.893,89.932 165.68,53.455 	"/>
	<polygon class="st1" points="126.04,73.893 142.893,89.932 134.465,51.918 	"/>
	<polygon class="st0" points="126.04,73.893 142.893,89.932 126.04,134.156 	"/>
	<polygon class="st1" points="243.097,199.149 273.248,152.493 275.048,184.752 	"/>
	<polygon class="st0" points="211.277,192.735 272.369,153.853 245.671,202.557 	"/>
</g>
</svg>
