<?xml version="1.0" encoding="utf-8"?>
<!-- Generator: Adobe Illustrator 19.2.1, SVG Export Plug-In . SVG Version: 6.00 Build 0)  -->
<svg version="1.1" id="Layer_1" xmlns="http://www.w3.org/2000/svg" xmlns:xlink="http://www.w3.org/1999/xlink" x="0px" y="0px"
	 viewBox="0 0 28 21" style="enable-background:new 0 0 28 21;" xml:space="preserve">
<style type="text/css">
	.st0{fill:#CCCCCC;}
</style>
<title>Mail</title>
<desc>Created with Sketch.</desc>
<g id="Homepage">
	<g id="Tom-Robertshaw" transform="translate(-721.000000, -1448.000000)">
		<g id="footer" transform="translate(-3.000000, 1399.347656)">
			<g id="Mail" transform="translate(724.500000, 49.226562)">
				<path id="Shape" class="st0" d="M0,2.175L0,2.175L2.166,0v20L0,17.825h27L24.834,20V0L27,2.175H0z M0,0h27v20H0V0L0,0z"/>
				<path id="Shape_1_" class="st0" d="M0.403,1.919l10.674,10.725l-0.117-0.139c0.041,0.058,0.103,0.137,0.185,0.23
					c0.129,0.145,0.278,0.289,0.447,0.425c0.506,0.406,1.098,0.663,1.772,0.672c0.84,0.011,1.652-0.378,2.386-1.154
					c0.679-0.718,2.547-2.57,5.222-5.189c0.041-0.04,0.041-0.04,0.082-0.08c1.229-1.203,2.547-2.488,3.864-3.769
					c0.461-0.449,0.889-0.865,1.274-1.238c0.134-0.131,0.254-0.246,0.357-0.346c0.036-0.035,0.067-0.065,0.094-0.091
					c0.027-0.026,0.027-0.026,0.032-0.031L25.17,0.368c-0.006,0.005-0.006,0.005-0.032,0.031c-0.027,0.026-0.058,0.056-0.094,0.091
					c-0.103,0.1-0.223,0.216-0.357,0.347c-0.385,0.373-0.813,0.79-1.275,1.239c-1.319,1.283-2.638,2.569-3.869,3.774
					c-0.041,0.04-0.041,0.04-0.082,0.08c-2.702,2.645-4.573,4.501-5.281,5.249c-0.34,0.36-0.591,0.48-0.788,0.477
					c-0.134-0.002-0.288-0.069-0.448-0.197c-0.068-0.054-0.129-0.114-0.181-0.172c-0.017-0.019-0.03-0.035-0.04-0.048
					c-0.003-0.003-0.001-0.002,0.004,0.006l-0.053-0.075l-0.064-0.065L1.935,0.382L0.403,1.919L0.403,1.919z"/>
				<polygon id="Shape_2_" class="st0" points="26.679,17.981 17.774,9.125 16.25,10.67 25.155,19.526 				"/>
				<polygon id="Shape_3_" class="st0" points="1.698,19.674 10.521,10.639 8.974,9.117 0.151,18.151 				"/>
			</g>
		</g>
	</g>
</g>
</svg>
