<?xml version="1.0" encoding="utf-8"?>
<!-- Generator: Adobe Illustrator 19.2.1, SVG Export Plug-In . SVG Version: 6.00 Build 0)  -->
<svg version="1.1" id="Layer_1" xmlns="http://www.w3.org/2000/svg" xmlns:xlink="http://www.w3.org/1999/xlink" x="0px" y="0px"
	 viewBox="0 0 576 432" style="enable-background:new 0 0 576 432;" xml:space="preserve">
<style type="text/css">
	.st0{fill-rule:evenodd;clip-rule:evenodd;fill:#010101;}
	.st1{fill:url(#SVGID_1_);}
	.st2{fill:url(#SVGID_2_);}
	.st3{fill:#FFFFFF;}
	.st4{fill:#010101;}
	.st5{fill:url(#SVGID_3_);}
</style>
<g>
	<path class="st0" d="M464.042,206.365c0,0-2.63,8.829-6.142,12.259c-3.511,3.438-10.081,8.286-12.257,8.863
		c-2.181,0.559,0.241-0.954,2.72-2.73c2.478-1.783,9.873-8.209,12.263-12.94C463.018,207.081,464.042,206.365,464.042,206.365"/>
	<path class="st0" d="M471.529,207.718c0,0-3.517,12.174-8.242,16.911c-4.726,4.741-13.572,11.43-16.502,12.22
		c-2.935,0.778,0.333-1.305,3.672-3.761c3.328-2.453,13.276-11.337,16.493-17.847C470.161,208.728,471.529,207.718,471.529,207.718"
		/>
	<path class="st0" d="M424.093,211.921c-8.762-37.329-68.841-66.208-141.659-66.208c-3.619,0-7.201,0.073-10.75,0.211
		c-0.86-7.669-2.525-15.921-5.045-24.392c-10.008-33.606-29.579-57.741-43.636-53.719c-14.045,4.029-17.139,34.588-6.989,68.069
		c1.809,5.969,3.919,11.618,6.242,16.865c-16.78,4.137-31.784,9.954-44.253,17.038c-5.191-8.736-20.276-33.636-34.232-52.009
		c-13.097-17.234-25.115-27.207-27.977-29.479c1.272-1.123,2.081-2.763,2.081-4.591c0-3.39-2.745-6.137-6.132-6.137
		c-3.387,0-6.134,2.747-6.134,6.137c0,3.385,2.747,6.13,6.134,6.13c1.497,0,2.865-0.537,3.931-1.426
		c3.068,3.605,19.147,22.641,30.816,39.585c14.855,21.549,24.534,40.883,24.534,40.883s-22.622-25.458-48.379-32.029
		c-12.179-3.097-23.934,3.588-25.666,4.634c-1.111-1.564-2.932-2.589-4.997-2.589c-3.388,0-6.131,2.746-6.131,6.137
		c0,3.388,2.743,6.135,6.131,6.135c3.384,0,6.129-2.747,6.129-6.135c0-1.311-0.413-2.522-1.111-3.518
		c1.959-0.836,15.556-6.159,29.051,0.795c25.571,13.165,38.316,28.968,41.865,33.887c-17.731,12.602-28.235,28.225-28.235,45.153
		c0,31.492,36.331,58.476,88.001,69.855c9.932,19.578,22.453,29.166,31.262,33.766c-0.673-0.038-1.36-0.065-2.064-0.065
		c-7.151,0-12.945,2.129-12.945,4.769c0,2.629,5.794,4.772,12.945,4.772c7.149,0,12.952-2.144,12.952-4.772
		c0-0.223-0.055-0.437-0.135-0.651c0.08,0.015,0.135,0.025,0.135,0.025c-0.058-0.036-0.113-0.074-0.172-0.11
		c-0.449-1.075-1.868-2.026-3.922-2.737c-11.637-9.077-17.818-22.9-20.793-31.87c1.71,0.243,3.432,0.48,5.167,0.692
		c11.284,24.917,26.837,35.303,36.181,39.499c-1.669,0.753-3.462,1.784-5.236,3.054c-5.623,4.034-8.96,8.95-7.446,10.983
		c1.518,2.025,7.308,0.405,12.931-3.625c3.587-2.573,6.232-5.503,7.292-7.814c0.334,0.07,0.528,0.104,0.528,0.104
		c-0.153-0.092-0.298-0.194-0.45-0.293c0.522-1.23,0.591-2.272,0.07-2.973c-0.747-1-2.534-1.109-4.826-0.484
		c-13.899-11.553-19.642-29.838-21.415-36.9c1.205,0.066,2.413,0.123,3.626,0.174c12.021,25.372,28.458,35.059,37.268,38.579
		c-1.735,1.777-3.531,4.5-4.982,7.744c-2.9,6.495-3.306,12.624-0.915,13.687c2.393,1.076,6.679-3.326,9.584-9.817
		c1.624-3.626,2.465-7.135,2.479-9.72c0.002,0.002,0.015,0.004,0.015,0.004c-0.006-0.004-0.007-0.007-0.015-0.009
		c0.011-2.038-0.495-3.499-1.552-3.97c-0.828-0.37-1.879-0.074-3.028,0.721c-14.146-11.353-20.062-29.68-21.952-37.062
		c3.966-0.084,7.895-0.251,11.778-0.505c10.904,16.022,23.168,22.769,30.166,25.486c-1.508,1.781-3.059,4.418-4.321,7.559
		c-2.606,6.502-2.981,12.643-0.82,13.711c2.15,1.078,6.013-3.333,8.628-9.84c1.455-3.623,2.212-7.134,2.226-9.719l0.006,0.002
		c0-0.002-0.002-0.002-0.006-0.003c0.014-2.054-0.444-3.524-1.4-3.999c-0.802-0.397-1.846-0.032-2.973,0.919
		c-8.984-7.131-14.683-17.08-18.141-25.335c1.866-0.218,3.718-0.454,5.555-0.711c11.072,16.874,23.746,23.902,30.938,26.702
		c-1.771,0.952-3.725,2.265-5.688,3.881c-5.688,4.68-9.277,10.088-8.012,12.07c1.255,1.993,6.884-0.189,12.58-4.872
		c5.687-4.679,9.275-10.079,8.015-12.064c-0.664-1.048-2.527-0.941-4.965,0.065c-10.144-7.812-16.175-19.228-19.57-28.016
		c2.854-0.563,5.666-1.174,8.43-1.83c9.313,15.62,20.145,23.68,28.006,27.777c-0.56,2.049,3.645,5.63,9.8,8.255
		c6.475,2.749,12.661,3.393,13.804,1.424c1.14-1.966-3.184-5.801-9.67-8.556c-3.88-1.653-7.642-2.539-10.289-2.571
		c-9.986-9.279-15.352-21.935-17.956-30.062c38.602-11.955,65.656-33.235,70.144-58.01c34.58-18.847,37.461-44.791,37.461-44.791
		C452.534,201.051,432.836,209.087,424.093,211.921z"/>
	<linearGradient id="SVGID_1_" gradientUnits="userSpaceOnUse" x1="282.4388" y1="99.4724" x2="282.4388" y2="305.2832">
		<stop  offset="0" style="stop-color:#FFC92B"/>
		<stop  offset="1" style="stop-color:#FAAC2A"/>
	</linearGradient>
	<path class="st1" d="M282.434,152.538c-4.956,0-9.848,0.149-14.659,0.438c-13.675,0.815-26.713,2.751-38.767,5.641
		c-45.04,10.796-76.382,34.826-76.382,62.734c0,38.01,58.116,68.823,129.808,68.823c71.702,0,129.818-30.813,129.818-68.823
		C412.252,183.342,354.136,152.538,282.434,152.538z"/>
	<path class="st0" d="M222.128,205.727c0,26.543-4.631,51.366-12.679,72.538c6.706,2.425,13.872,4.522,21.407,6.251
		c9.18-23.098,14.437-49.904,14.437-78.497c0-17.365-1.937-34.058-5.516-49.687c-7.72,1.428-15.106,3.216-22.087,5.36
		C220.569,175.537,222.128,190.337,222.128,205.727"/>
	<path class="st0" d="M267.473,152.985c4.148,16.29,6.441,34.09,6.441,52.742c0,31.104-6.361,59.829-17.118,83.099
		c7.61,0.811,15.464,1.266,23.495,1.331c10.632-24.321,16.796-53.184,16.796-84.138c0-18.73-2.266-36.69-6.396-53.35
		c-2.736-0.083-5.482-0.131-8.257-0.131C277.371,152.538,272.382,152.688,267.473,152.985"/>
	<path class="st0" d="M326.39,205.727c0,31.031-6.329,59.712-17.048,82.951c9.008-1.001,17.677-2.511,25.899-4.447
		c9.113-23.031,14.316-49.736,14.316-78.212c0-15.632-1.57-30.717-4.501-44.972c-7.714-2.259-15.907-4.113-24.469-5.503
		C324.333,171.128,326.39,188.034,326.39,205.727"/>
	<path class="st0" d="M402.446,195.075c-6.003-7.698-14.556-14.689-25.117-20.68c1.445,10.071,2.213,20.558,2.213,31.331
		c0,24.245-3.862,47.06-10.667,66.966c11.773-5.576,21.612-12.277,28.928-19.774c3.189-14.808,4.911-30.566,4.911-46.899
		C402.714,202.342,402.617,198.685,402.446,195.075"/>
	<linearGradient id="SVGID_2_" gradientUnits="userSpaceOnUse" x1="300.4238" y1="200.2632" x2="404.0742" y2="200.2632">
		<stop  offset="0" style="stop-color:#FFFFFF"/>
		<stop  offset="1" style="stop-color:#FFFFFF;stop-opacity:0.7"/>
	</linearGradient>
	<path class="st2" d="M305.453,161.404c-1.665,1.782-3.344,3.492-5.029,5.109c56.437,7.392,98.746,37.374,99.07,72.609
		c2.975-5.428,4.58-11.156,4.58-17.085C404.074,191.32,361.286,165.873,305.453,161.404z"/>
	<path class="st3" d="M262.818,122.401c-8.649-29.068-25.577-49.951-37.742-46.463c-12.147,3.487-14.829,29.921-6.054,58.887
		c2.689,8.874,6.142,16.955,9.985,23.791c7.831-1.877,16.085-3.345,24.656-4.372c2.375-7.436,6.173-15.607,11.242-23.915
		C264.308,127.723,263.613,125.076,262.818,122.401z"/>
	<path class="st4" d="M305.453,161.404c3.176-3.391,6.311-7.064,9.334-11.009c21.365-27.799,29.443-57.8,17.937-66.841
		c-11.49-9.015-38.074,6.398-59.253,34.248c-3.162,4.157-6.02,8.359-8.564,12.526c-5.069,8.308-8.867,16.479-11.242,23.915
		c-4.365,13.648-3.937,24.815,2.281,29.749c8.856,7.042,26.879-0.592,44.479-17.48C302.109,164.896,303.788,163.186,305.453,161.404
		z M260.928,176.873c-9.784-7.764-3.036-33.328,15.168-57.253c18.323-24.091,41.322-37.412,51.268-29.61
		c9.953,7.811,2.969,33.759-15.519,57.813C293.47,171.71,270.723,184.651,260.928,176.873z"/>
	<path class="st3" d="M311.845,147.823c18.487-24.054,25.472-50.002,15.519-57.813c-9.945-7.802-32.944,5.519-51.268,29.61
		c-18.204,23.925-24.951,49.489-15.168,57.253C270.723,184.651,293.47,171.71,311.845,147.823z"/>
	<path class="st0" d="M188.738,251.326c10.161,0,18.399,3.768,18.399,9.544c0,0.244-5.982-2.994-16.352-4.776
		c-10.014-1.704-9.7-2.288-20.446-2.713C170.338,252.354,178.577,251.326,188.738,251.326"/>
	<path class="st4" d="M182.605,180.465c-6.342,0-12.183,2.176-16.814,5.809c-1.291-0.226-2.613-0.355-3.967-0.355
		c-12.23,0-22.145,9.909-22.145,22.146c0,12.228,9.915,22.142,22.145,22.142c1.606,0,3.171-0.174,4.682-0.502
		c4.51,3.31,10.075,5.272,16.099,5.272c15.055,0,27.258-12.204,27.258-27.258C209.863,192.663,197.66,180.465,182.605,180.465"/>
	<path class="st3" d="M182.605,183.193c-6.455,0-12.331,2.501-16.714,6.584c-1.306-0.29-2.669-0.447-4.067-0.447
		c-10.35,0-18.74,8.383-18.74,18.734c0,10.348,8.391,18.736,18.74,18.736c1.612,0,3.18-0.209,4.673-0.591
		c4.31,3.762,9.946,6.041,16.108,6.041c13.547,0,24.532-10.986,24.532-24.533C207.137,194.176,196.152,183.193,182.605,183.193"/>
	<path class="st0" d="M159.099,213.175c2.069,0,3.746,1.676,3.746,3.748c0,2.063-1.677,3.748-3.746,3.748
		c-2.072,0-3.748-1.685-3.748-3.748C155.351,214.852,157.026,213.175,159.099,213.175"/>
	<path class="st0" d="M173.409,212.496c2.072,0,3.747,1.682,3.747,3.738c0,2.071-1.674,3.749-3.747,3.749
		c-2.071,0-3.747-1.678-3.747-3.749C169.662,214.178,171.338,212.496,173.409,212.496"/>
	<path class="st0" d="M161.824,189.33c-7.767,0-14.427,4.711-17.269,11.452l21.976,11.714l38.288-15.178
		c-3.912-8.343-12.387-14.125-22.215-14.125c-6.455,0-12.331,2.501-16.714,6.584C164.585,189.487,163.222,189.33,161.824,189.33"/>
	<linearGradient id="SVGID_3_" gradientUnits="userSpaceOnUse" x1="174.6279" y1="179.1697" x2="174.6279" y2="206.005">
		<stop  offset="0" style="stop-color:#FFC92B"/>
		<stop  offset="1" style="stop-color:#FAAC2A"/>
	</linearGradient>
	<path class="st5" d="M165.891,189.777c-1.306-0.29-2.665-0.447-4.067-0.447c-6.91,0-12.938,3.735-16.19,9.306l20.898,11.13
		l37.091-14.701c-4.295-7.116-12.103-11.872-21.017-11.872C176.15,183.193,170.274,185.694,165.891,189.777"/>
</g>
</svg>
