<?xml version="1.0" encoding="utf-8"?>
<!-- Generator: Adobe Illustrator 19.2.1, SVG Export Plug-In . SVG Version: 6.00 Build 0)  -->
<svg version="1.1" id="Layer_1" xmlns="http://www.w3.org/2000/svg" xmlns:xlink="http://www.w3.org/1999/xlink" x="0px" y="0px"
	 viewBox="0 0 20.043 19.989" style="enable-background:new 0 0 20.043 19.989;" xml:space="preserve">
<style type="text/css">
	.st0{enable-background:new    ;}
	.st1{clip-path:url(#SVGID_2_);}
	.st2{clip-path:url(#SVGID_4_);}
	.st3{clip-path:url(#SVGID_6_);enable-background:new    ;}
	.st4{clip-path:url(#SVGID_8_);}
	.st5{clip-path:url(#SVGID_10_);}
	.st6{clip-path:url(#SVGID_12_);fill:#CCCCCC;}
	.st7{clip-path:url(#SVGID_14_);}
	.st8{clip-path:url(#SVGID_16_);fill:#CCCCCC;}
	.st9{clip-path:url(#SVGID_18_);}
	.st10{clip-path:url(#SVGID_20_);fill:#CCCCCC;}
</style>
<g class="st0">
	<g>
		<defs>
			<rect id="SVGID_1_" x="0.008" y="0.014" width="19.975" height="19.975"/>
		</defs>
		<clipPath id="SVGID_2_">
			<use xlink:href="#SVGID_1_"  style="overflow:visible;"/>
		</clipPath>
		<g class="st1">
			<defs>
				<polyline id="SVGID_3_" points="0.008,0.014 19.884,0.014 19.884,19.88 0.008,19.88 				"/>
			</defs>
			<clipPath id="SVGID_4_">
				<use xlink:href="#SVGID_3_"  style="overflow:visible;"/>
			</clipPath>
			<g class="st2">
				<defs>
					<rect id="SVGID_5_" x="0.008" y="0.014" width="19.975" height="19.975"/>
				</defs>
				<clipPath id="SVGID_6_">
					<use xlink:href="#SVGID_5_"  style="overflow:visible;"/>
				</clipPath>
				<g class="st3">
					<g>
						<defs>
							<rect id="SVGID_7_" x="0.008" y="0.014" width="19.975" height="19.975"/>
						</defs>
						<clipPath id="SVGID_8_">
							<use xlink:href="#SVGID_7_"  style="overflow:visible;"/>
						</clipPath>
						<g class="st4">
							<defs>
								<path id="SVGID_9_" d="M2.733,14.438c1.505,0,2.726,1.221,2.726,2.726c0,1.505-1.221,2.726-2.726,2.726
									s-2.726-1.221-2.726-2.726C0.008,15.659,1.228,14.438,2.733,14.438"/>
							</defs>
							<clipPath id="SVGID_10_">
								<use xlink:href="#SVGID_9_"  style="overflow:visible;"/>
							</clipPath>
							<g class="st5">
								<defs>
									<rect id="SVGID_11_" x="0.008" y="0.014" width="19.975" height="19.975"/>
								</defs>
								<clipPath id="SVGID_12_">
									<use xlink:href="#SVGID_11_"  style="overflow:visible;"/>
								</clipPath>
								<rect x="-5.249" y="9.182" class="st6" width="15.965" height="15.965"/>
							</g>
						</g>
						<g class="st4">
							<defs>
								<path id="SVGID_13_" d="M13.183,19.89H9.321c0-5.144-4.17-9.313-9.313-9.313V6.715C7.284,6.715,13.183,12.614,13.183,19.89"
									/>
							</defs>
							<clipPath id="SVGID_14_">
								<use xlink:href="#SVGID_13_"  style="overflow:visible;"/>
							</clipPath>
							<g class="st7">
								<defs>
									<rect id="SVGID_15_" x="0.008" y="0.014" width="19.975" height="19.975"/>
								</defs>
								<clipPath id="SVGID_16_">
									<use xlink:href="#SVGID_15_"  style="overflow:visible;"/>
								</clipPath>
								<rect x="-5.249" y="1.458" class="st8" width="23.689" height="23.689"/>
							</g>
						</g>
						<g class="st4">
							<defs>
								<path id="SVGID_17_" d="M15.909,19.89c0-8.782-7.119-15.901-15.901-15.901V0.014c10.977,0,19.876,8.899,19.876,19.876
									H15.909"/>
							</defs>
							<clipPath id="SVGID_18_">
								<use xlink:href="#SVGID_17_"  style="overflow:visible;"/>
							</clipPath>
							<g class="st9">
								<defs>
									<rect id="SVGID_19_" x="0.008" y="0.014" width="19.975" height="19.975"/>
								</defs>
								<clipPath id="SVGID_20_">
									<use xlink:href="#SVGID_19_"  style="overflow:visible;"/>
								</clipPath>
								<rect x="-5.249" y="-5.243" class="st10" width="30.39" height="30.39"/>
							</g>
						</g>
					</g>
				</g>
			</g>
		</g>
	</g>
</g>
</svg>
