<?xml version="1.0" encoding="utf-8"?>
<!-- Generator: Adobe Illustrator 20.1.0, SVG Export Plug-In . SVG Version: 6.00 Build 0)  -->
<svg version="1.1" id="Layer_1" xmlns="http://www.w3.org/2000/svg" xmlns:xlink="http://www.w3.org/1999/xlink" x="0px" y="0px"
	 viewBox="0 0 331.145 27.125" style="enable-background:new 0 0 331.145 27.125;" xml:space="preserve">
<style type="text/css">
	.st0{enable-background:new    ;}
	.st1{fill:#FF5C00;}
	.st2{fill:#4A4A4A;}
</style>
<title>TOMROBERTSHAW</title>
<desc>Created with Sketch.</desc>
<g id="Homepage">
	<g id="Tom-Robertshaw" transform="translate(-61.000000, -65.000000)">
		<g id="Nav-links" transform="translate(61.000000, 56.000000)">
			<g class="st0">
				<path class="st1" d="M13.411,15.103v20.232H7.255V15.103h-7.2V9.848h20.556v5.256H13.411z"/>
				<path class="st1" d="M48.907,22.484c0,2.015-0.348,3.857-1.044,5.525c-0.696,1.67-1.662,3.096-2.898,4.285
					c-1.236,1.188-2.706,2.105-4.41,2.754c-1.705,0.648-3.552,0.971-5.544,0.971s-3.834-0.322-5.526-0.971s-3.156-1.566-4.392-2.754
					c-1.236-1.189-2.202-2.615-2.898-4.285c-0.696-1.668-1.044-3.51-1.044-5.525c0-2.04,0.348-3.882,1.044-5.526
					c0.696-1.644,1.662-3.042,2.898-4.194c1.236-1.151,2.7-2.039,4.392-2.664c1.692-0.623,3.534-0.936,5.526-0.936
					s3.84,0.312,5.544,0.936c1.704,0.625,3.173,1.513,4.41,2.664c1.236,1.152,2.202,2.551,2.898,4.194
					C48.559,18.602,48.907,20.444,48.907,22.484z M42.319,22.484c0-1.104-0.18-2.137-0.54-3.097
					c-0.36-0.959-0.858-1.782-1.494-2.466c-0.636-0.684-1.404-1.224-2.304-1.62c-0.9-0.396-1.89-0.594-2.97-0.594
					c-1.08,0-2.064,0.198-2.952,0.594c-0.888,0.396-1.656,0.937-2.304,1.62s-1.146,1.507-1.494,2.466
					c-0.348,0.96-0.522,1.992-0.522,3.097c0,1.151,0.18,2.214,0.54,3.185c0.36,0.973,0.858,1.807,1.494,2.502
					c0.636,0.697,1.398,1.242,2.286,1.639c0.888,0.396,1.872,0.594,2.952,0.594c1.08,0,2.064-0.197,2.952-0.594
					c0.888-0.396,1.656-0.941,2.304-1.639c0.648-0.695,1.152-1.529,1.512-2.502C42.139,24.699,42.319,23.636,42.319,22.484z"/>
				<path class="st1" d="M76.087,35.335L76.23,17.3h-0.108l-6.624,18.036h-4.32L58.735,17.3h-0.108l0.144,18.036h-5.796V9.848h8.759
					l5.803,16.345h0.144l5.551-16.345h8.903v25.488H76.087z"/>
			</g>
			<g class="st0">
				<path class="st2" d="M109.015,35.335l-7.704-12.851h-5.976v12.851h-0.792V9.848h7.056c0.936,0,1.884,0.085,2.844,0.252
					c0.96,0.169,1.818,0.486,2.574,0.954s1.374,1.11,1.854,1.926c0.48,0.816,0.72,1.872,0.72,3.168c0,1.201-0.228,2.196-0.684,2.988
					c-0.457,0.792-1.044,1.435-1.764,1.926c-0.72,0.492-1.518,0.847-2.394,1.062c-0.876,0.216-1.734,0.324-2.574,0.324l7.74,12.887
					H109.015z M108.799,16.147c0-1.104-0.216-2.021-0.648-2.754c-0.432-0.731-1.002-1.308-1.71-1.728
					c-0.708-0.42-1.524-0.714-2.448-0.882c-0.924-0.168-1.867-0.252-2.826-0.252h-5.832V21.8h6.228c2.352,0,4.146-0.491,5.382-1.476
					C108.181,19.34,108.799,17.948,108.799,16.147z"/>
				<path class="st2" d="M140.911,22.592c0,1.968-0.33,3.775-0.99,5.417c-0.661,1.645-1.572,3.061-2.736,4.248
					c-1.165,1.189-2.551,2.119-4.158,2.791c-1.608,0.672-3.348,1.008-5.22,1.008c-1.872,0-3.612-0.336-5.22-1.008
					c-1.608-0.672-2.994-1.602-4.158-2.791c-1.164-1.188-2.076-2.604-2.736-4.248c-0.661-1.643-0.99-3.449-0.99-5.417
					c0-1.968,0.33-3.773,0.99-5.418c0.66-1.644,1.572-3.06,2.736-4.248c1.164-1.188,2.544-2.117,4.14-2.79
					c1.596-0.672,3.342-1.008,5.238-1.008s3.642,0.336,5.238,1.008c1.596,0.673,2.976,1.603,4.14,2.79
					c1.164,1.188,2.075,2.604,2.736,4.248C140.581,18.818,140.911,20.624,140.911,22.592z M140.119,22.592
					c0-1.775-0.3-3.438-0.9-4.986c-0.6-1.548-1.446-2.897-2.538-4.05c-1.092-1.151-2.394-2.058-3.906-2.718
					c-1.512-0.66-3.168-0.99-4.968-0.99c-1.8,0-3.456,0.33-4.968,0.99s-2.814,1.566-3.906,2.718
					c-1.092,1.152-1.938,2.502-2.538,4.05c-0.601,1.549-0.9,3.211-0.9,4.986c0,1.777,0.294,3.439,0.882,4.986
					c0.588,1.549,1.422,2.898,2.502,4.051s2.376,2.059,3.888,2.717c1.512,0.66,3.192,0.99,5.04,0.99s3.528-0.33,5.04-0.99
					c1.512-0.658,2.808-1.564,3.888-2.717s1.914-2.502,2.502-4.051C139.825,26.031,140.119,24.369,140.119,22.592z"/>
				<path class="st2" d="M163.338,28.533c0,1.367-0.258,2.49-0.774,3.365c-0.517,0.877-1.176,1.566-1.98,2.07
					c-0.804,0.504-1.692,0.857-2.664,1.062c-0.972,0.203-1.902,0.305-2.79,0.305h-7.812V9.848h6.948
					c0.959,0,1.914,0.097,2.862,0.288c0.948,0.192,1.794,0.517,2.538,0.973c0.744,0.456,1.344,1.067,1.8,1.836
					c0.456,0.768,0.684,1.74,0.684,2.916c0,0.912-0.144,1.704-0.432,2.376c-0.288,0.672-0.678,1.248-1.17,1.728
					c-0.492,0.48-1.05,0.87-1.674,1.17c-0.625,0.301-1.26,0.522-1.908,0.666v0.072c0.648,0.072,1.344,0.246,2.088,0.521
					c0.744,0.276,1.434,0.679,2.07,1.206c0.636,0.529,1.164,1.201,1.584,2.017C163.128,26.431,163.338,27.404,163.338,28.533z
					 M161.358,15.968c0-1.031-0.204-1.896-0.612-2.592c-0.409-0.696-0.949-1.248-1.62-1.656c-0.672-0.407-1.446-0.702-2.322-0.882
					s-1.794-0.27-2.754-0.27h-5.94v10.979h6.12c0.864,0,1.722-0.108,2.574-0.324s1.614-0.545,2.286-0.989s1.218-1.021,1.638-1.729
					C161.148,17.798,161.358,16.952,161.358,15.968z M162.546,28.64c0-1.152-0.234-2.137-0.702-2.953
					c-0.468-0.814-1.062-1.475-1.782-1.979c-0.72-0.504-1.512-0.87-2.376-1.098c-0.864-0.229-1.705-0.343-2.52-0.343h-7.056v12.349
					h6.66c1.104,0,2.136-0.115,3.096-0.342c0.96-0.229,1.782-0.582,2.466-1.062s1.224-1.098,1.62-1.854
					C162.349,30.601,162.546,29.697,162.546,28.64z"/>
				<path class="st2" d="M169.351,35.335V9.848h14.868v0.721h-14.076v11.195h13.248v0.721h-13.248v12.132h14.651v0.719H169.351z"/>
				<path class="st2" d="M205.062,35.335l-7.704-12.851h-5.977v12.851h-0.792V9.848h7.057c0.936,0,1.884,0.085,2.844,0.252
					c0.96,0.169,1.818,0.486,2.574,0.954s1.373,1.11,1.854,1.926c0.48,0.816,0.72,1.872,0.72,3.168c0,1.201-0.228,2.196-0.684,2.988
					s-1.044,1.435-1.764,1.926c-0.721,0.492-1.519,0.847-2.395,1.062s-1.734,0.324-2.573,0.324l7.739,12.887H205.062z
					 M204.846,16.147c0-1.104-0.216-2.021-0.647-2.754c-0.432-0.731-1.003-1.308-1.71-1.728c-0.708-0.42-1.524-0.714-2.448-0.882
					s-1.866-0.252-2.826-0.252h-5.832V21.8h6.229c2.352,0,4.146-0.491,5.382-1.476C204.228,19.34,204.846,17.948,204.846,16.147z"/>
				<path class="st2" d="M217.843,10.568v24.767h-0.792V10.568h-8.677V9.848h18.145v0.721H217.843z"/>
				<path class="st2" d="M245.095,29.216c0,1.08-0.211,2.047-0.631,2.898s-0.978,1.572-1.674,2.16s-1.518,1.031-2.466,1.33
					c-0.948,0.301-1.938,0.451-2.97,0.451c-1.584,0-3.03-0.283-4.338-0.846c-1.309-0.564-2.395-1.326-3.259-2.287l0.612-0.539
					c0.912,0.984,1.974,1.723,3.187,2.213c1.211,0.492,2.466,0.738,3.762,0.738c0.936,0,1.823-0.137,2.664-0.414
					c0.84-0.275,1.584-0.672,2.231-1.188c0.648-0.516,1.158-1.152,1.53-1.908s0.559-1.625,0.559-2.609s-0.205-1.812-0.612-2.484
					c-0.408-0.672-0.937-1.248-1.584-1.729c-0.648-0.479-1.386-0.881-2.214-1.206c-0.828-0.324-1.662-0.617-2.502-0.882
					c-1.057-0.336-2.022-0.689-2.898-1.062c-0.876-0.371-1.632-0.827-2.268-1.367c-0.637-0.54-1.129-1.188-1.477-1.944
					s-0.521-1.674-0.521-2.754c0-1.056,0.21-1.998,0.63-2.826s0.99-1.523,1.71-2.088c0.72-0.563,1.554-0.996,2.502-1.296
					c0.947-0.3,1.949-0.45,3.006-0.45c1.296,0,2.525,0.246,3.69,0.738c1.163,0.492,2.117,1.194,2.861,2.105l-0.611,0.54
					c-0.673-0.84-1.53-1.494-2.574-1.962s-2.178-0.702-3.402-0.702c-0.864,0-1.71,0.121-2.538,0.36
					c-0.828,0.24-1.578,0.606-2.25,1.098c-0.672,0.492-1.212,1.11-1.62,1.854s-0.611,1.62-0.611,2.628
					c0,0.984,0.18,1.817,0.54,2.502c0.359,0.684,0.84,1.266,1.439,1.746s1.278,0.876,2.034,1.188
					c0.756,0.312,1.53,0.601,2.322,0.864c1.08,0.36,2.088,0.727,3.023,1.098c0.937,0.373,1.758,0.824,2.467,1.351
					c0.707,0.527,1.26,1.17,1.655,1.926C244.896,27.218,245.095,28.136,245.095,29.216z"/>
				<path class="st2" d="M269.43,35.335V22.519h-17.136v12.816h-0.792V9.848h0.792V21.8h17.136V9.848h0.792v25.488H269.43z"/>
				<path class="st2" d="M296.501,35.335l-3.023-7.307h-14.796l-3.132,7.307h-0.864l11.052-25.488h1.008l10.62,25.488H296.501z
					 M286.205,10.351l-7.235,16.992h14.256L286.205,10.351z"/>
				<path class="st2" d="M323.357,35.335h-1.225l-7.38-24.732h-0.071l-7.236,24.732h-1.224l-7.633-25.488h0.828l7.345,24.769h0.107
					l7.236-24.769h1.224l7.38,24.769h0.108l7.344-24.769h0.828L323.357,35.335z"/>
			</g>
		</g>
	</g>
</g>
</svg>
